<?xml version="1.0" standalone="no"?>
<!DOCTYPE svg PUBLIC "-//W3C//DTD SVG 20010904//EN"
 "http://www.w3.org/TR/2001/REC-SVG-20010904/DTD/svg10.dtd">
<svg version="1.0" xmlns="http://www.w3.org/2000/svg"
 width="2616.000000pt" height="924.000000pt" viewBox="0 0 2616.000000 924.000000"
 preserveAspectRatio="xMidYMid meet">

<g transform="translate(0.000000,924.000000) scale(0.100000,-0.100000)"
fill="#000000" stroke="none">
<path d="M9140 8063 c-518 -51 -943 -217 -1310 -511 -139 -112 -239 -211 -359
-357 -357 -432 -554 -901 -622 -1475 -17 -147 -20 -216 -16 -430 3 -161 11
-299 21 -375 88 -623 352 -1146 797 -1581 372 -363 923 -593 1604 -670 196
-22 682 -30 865 -14 371 31 724 121 980 250 216 108 373 220 549 393 285 281
478 597 604 992 37 117 72 263 65 271 -11 10 -1349 476 -1354 471 -3 -3 -19
-65 -35 -139 -37 -170 -78 -295 -142 -433 -127 -277 -296 -443 -534 -527 -85
-29 -95 -31 -263 -32 -146 -1 -185 2 -235 18 -365 115 -558 430 -631 1028 -23
186 -23 653 -1 836 77 623 286 949 658 1028 102 22 306 14 407 -15 282 -82
526 -331 632 -646 l27 -80 656 -3 657 -2 0 955 0 955 -630 0 -630 0 0 -176 0
-176 -47 35 c-89 65 -138 95 -243 150 -349 185 -733 269 -1215 265 -121 -1
-236 -3 -255 -5z"/>
<path d="M18175 8064 c-199 -30 -334 -68 -460 -131 -177 -88 -286 -192 -348
-329 -30 -66 -31 -74 -31 -199 1 -124 2 -133 34 -205 74 -170 236 -291 489
-366 300 -88 744 -86 1011 4 248 84 408 212 482 384 29 67 31 82 32 188 1 106
-2 121 -28 185 -93 223 -320 381 -641 447 -77 15 -147 21 -305 23 -113 2 -218
1 -235 -1z"/>
<path d="M4510 3580 l0 -3510 470 0 470 0 0 3510 0 3510 -470 0 -470 0 0
-3510z"/>
<path d="M16485 6434 c-433 -33 -643 -122 -922 -387 -141 -135 -246 -277 -333
-452 l-70 -140 0 463 0 462 -1130 0 -1130 0 0 -580 0 -580 245 0 245 0 0 -675
0 -675 -245 0 -245 0 0 -575 0 -575 1470 0 1470 0 0 575 0 575 -275 0 -275 0
0 30 c0 68 23 229 45 316 45 176 130 300 273 396 227 153 525 217 1010 218
l212 0 0 805 0 805 -152 -2 c-84 -1 -171 -3 -193 -4z"/>
<path d="M21575 6431 c-252 -23 -518 -101 -728 -214 -120 -66 -142 -82 -242
-182 -124 -124 -175 -203 -224 -351 -42 -125 -61 -255 -61 -420 0 -296 68
-476 246 -649 182 -177 419 -309 732 -409 234 -75 827 -242 1122 -316 346 -87
485 -146 522 -220 63 -125 -28 -230 -232 -266 -91 -16 -353 -18 -436 -3 -233
42 -461 165 -672 364 l-80 75 -546 0 -546 0 0 -585 0 -585 590 0 590 0 0 110
c0 61 2 110 4 110 3 0 61 -25 129 -54 150 -66 369 -126 567 -158 128 -20 180
-22 450 -22 300 0 308 1 477 33 393 73 745 249 918 458 161 194 234 421 235
721 0 279 -72 478 -239 657 -258 276 -655 425 -1756 660 -575 122 -665 148
-698 198 -35 53 -28 139 15 198 30 40 105 77 194 95 99 21 379 14 494 -11 217
-48 436 -157 595 -296 l56 -49 540 0 539 0 0 530 0 530 -580 0 -580 0 0 -95
c0 -52 -2 -95 -4 -95 -3 0 -58 24 -123 54 -156 71 -352 129 -543 161 -128 21
-197 27 -395 30 -132 2 -280 0 -330 -4z"/>
<path d="M17110 5800 l0 -580 185 0 185 0 0 -675 0 -675 -185 0 -185 0 0 -575
0 -575 1295 0 1295 0 0 575 0 575 -160 0 -160 0 0 1255 0 1255 -1135 0 -1135
0 0 -580z"/>
</g>
</svg>
